<svg xmlns="http://www.w3.org/2000/svg" viewBox="0 0 120 140" role="img" aria-label="FERWAFA">
  <defs>
    <linearGradient id="shield" x1="0" y1="0" x2="0" y2="1">
      <stop offset="0%" stop-color="#00A1DE"/>
      <stop offset="50%" stop-color="#FAD201"/>
      <stop offset="100%" stop-color="#00A651"/>
    </linearGradient>
  </defs>
  <path d="M60 6 L108 24 V70 C108 102 84 124 60 134 C36 124 12 102 12 70 V24 Z"
        fill="url(#shield)" stroke="#0b3d2e" stroke-width="3"/>
  <circle cx="60" cy="70" r="28" fill="#fff" opacity="0.95"/>
  <circle cx="60" cy="70" r="26" fill="none" stroke="#0b3d2e" stroke-width="2"/>
  <path d="M60 44 C72 52 78 60 78 70 C78 80 72 88 60 96 C48 88 42 80 42 70 C42 60 48 52 60 44 Z"
        fill="none" stroke="#0b3d2e" stroke-width="2"/>
  <path d="M34 70 H86 M52 48 Q60 70 52 92 M68 48 Q60 70 68 92"
        fill="none" stroke="#0b3d2e" stroke-width="1.8"/>
  <text x="60" y="128" text-anchor="middle" font-family="Segoe UI, Arial, sans-serif"
        font-size="11" font-weight="700" fill="#0b3d2e">FERWAFA</text>
</svg>
